<svg width="45" height="19" viewBox="0 0 45 19" fill="none" xmlns="http://www.w3.org/2000/svg">
<path d="M0.882079 17.0528H0V18C0 18.5523 0.447715 19 1 19H44C44.5523 19 45 18.5523 45 18V4.61429L43.9804 8.25975C43.7177 9.19883 42.3571 9.10533 42.2253 8.13915L42.1504 7.58987C42.0834 7.09857 41.4901 6.88726 41.1277 7.2256C40.8166 7.51592 40.3115 7.40758 40.1469 7.01523L39.9999 6.66474C39.7344 6.03211 38.8778 5.93622 38.4791 6.49449L36.66 9.04127C36.5045 9.25912 36.206 9.31796 35.9794 9.17549C35.6991 8.99932 35.328 9.13544 35.2281 9.45102L34.6722 11.2074C34.3712 12.1582 33.0164 12.1308 32.754 11.1687L32.2796 9.42919L31.1917 6.90263C30.9671 6.38098 30.2402 6.34726 29.9683 6.84587C29.7541 7.23856 29.2259 7.32167 28.9015 7.01375L28.5781 6.70686C27.998 6.15627 27.0384 6.47574 26.904 7.26417L26.5583 9.29206C26.5428 9.38304 26.5148 9.47144 26.475 9.55474L26.37 9.77479C26.0285 10.4904 25.0299 10.5429 24.6152 9.86708L24.5798 9.80937C24.4313 9.56741 24.187 9.39995 23.9078 9.34875L23.8966 9.3467C23.5053 9.27496 23.1937 8.9781 23.1032 8.59071L21.9445 3.63388C21.8295 3.14181 21.165 3.05717 20.9303 3.5047C20.6948 3.9537 20.0277 3.86664 19.9153 3.37224L19.7678 2.72309C19.5911 1.94556 18.5052 1.88846 18.2479 2.64317L17.7385 4.13756C17.6004 4.54261 17.2199 4.81491 16.792 4.81491H15.8522C15.5286 4.81491 15.2358 5.00703 15.107 5.30396L14.7566 6.11152C14.6067 6.45704 14.1167 6.45704 13.9668 6.11152C13.7976 5.72146 13.2255 5.7868 13.1485 6.20496L11.1599 17.0147C11.1084 17.2943 10.9404 17.5388 10.6978 17.687L10.5029 17.8061C9.95653 18.1401 9.2415 17.8816 9.03489 17.2755L8.79698 16.5776C8.54185 15.8292 7.56006 15.6589 7.06784 16.2778L6.54671 16.9329C6.03987 17.5701 5.02464 17.3669 4.80215 16.5837L4.6784 16.1481C4.65982 16.0826 4.63462 16.0193 4.60318 15.959L4.04237 14.8833C3.62315 14.0792 2.43603 14.2035 2.19241 15.077L1.84532 16.3214C1.72474 16.7538 1.3309 17.0528 0.882079 17.0528Z" fill="url(#paint0_linear_1_149)"/>
<path d="M0 17.0528H0.882079C1.3309 17.0528 1.72474 16.7538 1.84532 16.3214L2.19241 15.077C2.43603 14.2035 3.62315 14.0792 4.04237 14.8833L4.60318 15.959C4.63462 16.0193 4.65982 16.0826 4.6784 16.1481L4.80215 16.5837C5.02464 17.3669 6.03987 17.5701 6.54671 16.9329L7.06784 16.2778C7.56006 15.6589 8.54185 15.8292 8.79698 16.5776L9.0349 17.2755C9.2415 17.8816 9.95653 18.1401 10.5029 17.8061L10.6978 17.687C10.9404 17.5388 11.1084 17.2943 11.1599 17.0147L13.1485 6.20496C13.2255 5.7868 13.7976 5.72146 13.9668 6.11152V6.11152C14.1167 6.45703 14.6067 6.45703 14.7566 6.11152L15.107 5.30396C15.2358 5.00703 15.5286 4.81491 15.8522 4.81491H16.792C17.2199 4.81491 17.6004 4.54261 17.7385 4.13756L18.2479 2.64317C18.5052 1.88846 19.5911 1.94556 19.7678 2.72309L19.9153 3.37224C20.0277 3.86664 20.6948 3.9537 20.9303 3.5047V3.5047C21.165 3.05717 21.8295 3.14181 21.9445 3.63388L23.1032 8.59071C23.1937 8.97809 23.5053 9.27496 23.8966 9.3467L23.9078 9.34875C24.187 9.39995 24.4313 9.56741 24.5798 9.80937L24.6152 9.86708C25.0299 10.5429 26.0285 10.4904 26.37 9.77479L26.475 9.55474C26.5148 9.47144 26.5428 9.38304 26.5583 9.29206L26.904 7.26417C27.0384 6.47573 27.998 6.15627 28.5781 6.70686L28.9015 7.01375C29.2259 7.32167 29.7541 7.23856 29.9683 6.84587V6.84587C30.2402 6.34725 30.9671 6.38098 31.1917 6.90263L32.2796 9.42919L32.754 11.1687C33.0164 12.1308 34.3712 12.1582 34.6722 11.2074L35.2281 9.45102C35.328 9.13543 35.6991 8.99932 35.9794 9.17549V9.17549C36.206 9.31796 36.5045 9.25912 36.66 9.04127L38.4791 6.49448C38.8778 5.93621 39.7344 6.03211 39.9999 6.66474L40.1469 7.01523C40.3115 7.40758 40.8166 7.51592 41.1277 7.2256V7.2256C41.4901 6.88726 42.0834 7.09857 42.1504 7.58987L42.2115 8.03808C42.3376 8.96243 43.6479 9.03141 43.8703 8.12541L44.7321 4.61429" stroke="#17E8E8" stroke-width="0.5" stroke-linecap="round"/>
<defs>
<linearGradient id="paint0_linear_1_149" x1="20.1316" y1="-3.5" x2="24.8716" y2="16.9118" gradientUnits="userSpaceOnUse">
<stop stop-color="#17E8E8" stop-opacity="0.45"/>
<stop offset="1" stop-color="#17E8E8" stop-opacity="0"/>
</linearGradient>
</defs>
</svg>
